<?xml version="1.0" standalone="no"?><!DOCTYPE svg PUBLIC "-//W3C//DTD SVG 1.1//EN" "http://www.w3.org/Graphics/SVG/1.1/DTD/svg11.dtd"><svg t="1612603915605" class="icon" viewBox="0 0 1024 1024" version="1.1" xmlns="http://www.w3.org/2000/svg" p-id="14491" xmlns:xlink="http://www.w3.org/1999/xlink" width="64" height="64"><defs><style type="text/css"></style></defs><path d="M493.03 800.95l20.02 16.49 20.02-16.49c11.78-9.42 266.13-227.27 266.13-435.7 0-157.79-128.36-286.15-286.15-286.15-157.8 0-286.15 128.36-286.15 286.15 0 207.26 255.54 426.29 266.13 435.7z m20.02-659.43c123.65 0 223.74 100.1 224.92 223.74 0 149.55-166.04 317.94-224.92 372.11-57.7-55.35-224.91-222.56-224.91-372.11 0-123.65 101.27-223.74 224.91-223.74z m0 0" p-id="14492" fill="#1296db"></path><path d="M661.43 361.72c-2.35-82.43-70.66-147.2-151.91-144.84-82.43 2.35-147.2 70.65-144.84 151.9 2.36 82.43 70.65 146.02 151.91 144.84 82.42-2.35 147.19-70.65 144.84-151.9z m-235.52 5.89c-1.17-48.28 36.5-88.31 84.79-89.49 48.28-1.18 88.32 36.5 89.49 84.78 1.18 48.28-36.5 88.32-84.78 89.5-48.28 1.17-88.32-36.51-89.5-84.79z m297.93 333.25c-2.35-1.18-4.71-1.18-7.06 0-2.35 1.17-3.53 2.35-4.71 4.71-2.35 8.24-4.71 15.31-9.42 22.38-1.17 2.36 0 5.89 3.54 7.06 35.33 17.66 54.16 38.86 54.16 61.24 0 54.16-111.87 98.91-248.46 98.91-136.6 0-248.47-44.75-248.47-98.91 0-22.38 18.84-43.57 54.17-61.24 3.53-1.17 4.7-4.7 3.53-7.06-3.53-7.06-5.89-15.31-8.24-22.38-1.18-2.35-2.36-3.53-4.71-4.71-2.36-1.18-4.71-1.18-7.06 0-60.06 24.73-93.03 58.87-93.03 95.38 0 73.01 118.93 148.37 303.82 148.37 204.9 0 303.81-75.36 303.81-148.37 1.16-36.5-31.81-70.65-91.87-95.38z m0 0" p-id="14493" fill="#1296db"></path></svg>