<?xml version="1.0" standalone="no"?><!DOCTYPE svg PUBLIC "-//W3C//DTD SVG 1.1//EN" "http://www.w3.org/Graphics/SVG/1.1/DTD/svg11.dtd"><svg t="1612603724549" class="icon" viewBox="0 0 1024 1024" version="1.1" xmlns="http://www.w3.org/2000/svg" p-id="14212" xmlns:xlink="http://www.w3.org/1999/xlink" width="64" height="64"><defs><style type="text/css"></style></defs><path d="M688 512l-168.8 128.4c-2.4-0.2-4.8-0.4-7.2-0.4-35.4 0-64 28.6-64 64 0 35.4 28.6 64 64 64 35.4 0 64-28.6 64-64 0-2.4-0.2-4.8-0.4-7.2L704 528 688 512z" p-id="14213" fill="#1296db"></path><path d="M512 192C264.6 192 64 392.6 64 640c0 68.8 15.6 133.8 43.2 192l72.2 0c-30.8-53.2-48.4-113.2-51-176L192 656l0-32L128.4 624c2.4-57.6 17.4-113 43.6-162.8l55 31.8 16-27.8L188 433.6c14.8-23.2 32.4-45.2 52.4-65.2 20.4-20.2 42.6-38 66.2-53l31.6 54.6 27.8-16-31.6-54.6c49.6-26 104.4-40.6 161.6-43L496 320l32 0 0-63.6c57.2 2.4 112 17.2 161.6 43L658.2 354l27.8 16 31.6-54.6c23.6 15 45.8 32.8 66.2 53 20 20 37.4 41.8 52.4 65.2l-54.8 31.6 16 27.8 55-31.8c26.2 49.8 41.2 105.2 43.6 162.8L832 624l0 32 63.6 0c-2.6 62.8-20.2 122.8-51 176l72.2 0c27.6-58.2 43.2-123.2 43.2-192C960 392.6 759.4 192 512 192z" p-id="14214" fill="#1296db"></path></svg>